<?xml version="1.0" encoding="UTF-8"?>
<!DOCTYPE svg PUBLIC "-//W3C//DTD SVG 1.1//EN" "http://www.w3.org/Graphics/SVG/1.1/DTD/svg11.dtd">
<svg
   version="1.1"
   id="svg1"
   width="100"
   height="99.999992"
   viewBox="0 0 100 99.999992"
   xmlns="http://www.w3.org/2000/svg"
   xmlns:svg="http://www.w3.org/2000/svg">
  <defs
     id="defs1" />
  <g
     id="g1"
     transform="translate(-121.3558,-125.76304)">
    <path
       style="fill:#3C3C3C;fill-opacity:1;stroke-width:1.37139"
       d="m 172.70772,198.7 c -0.14942,-0.0176 -0.42688,-0.0882 -0.61898,-0.19385 -0.1921,-0.10567 -0.52294,-0.35246 -0.72571,-0.58155 -0.20276,-0.22911 -0.51224,-0.7754 -0.67233,-1.21598 -0.16008,-0.44057 -0.74704,-2.81965 -1.29132,-5.26922 -0.9925,-4.45858 -0.9925,-4.45858 -6.52062,-4.45858 -5.52812,0 -5.52812,0 -6.40323,4.018 -0.48025,2.20286 -0.9925,4.42334 -1.13123,4.91678 -0.14941,0.49344 -0.39487,1.14547 -0.55494,1.42744 -0.16009,0.29959 -0.45891,0.66967 -0.66167,0.8459 -0.20277,0.17622 -0.64032,0.31721 -0.96047,0.31721 -0.39488,0 -0.75773,-0.17622 -1.05655,-0.51106 -0.25612,-0.28196 -0.59764,-0.86352 -0.77906,-1.30409 -0.25613,-0.63442 -0.30949,-1.00451 -0.2668,-1.92089 0.0854,-1.70942 8.61235,-38.84069 9.15662,-40.02143 0.44823,-0.96925 1.38737,-2.04424 2.2091,-2.23809 0.41622,-0.1058 0.8431,-0.0353 1.32334,0.21147 1.02452,0.54631 2.04903,2.30858 2.15575,2.81965 3.11624,14.41547 5.82693,24.07278 8.84713,39.56324 0.0108,0.96925 -0.064,1.40982 -0.32017,2.009 -0.18142,0.42294 -0.5763,0.95163 -0.88578,1.18072 -0.30948,0.2291 -0.68302,0.40533 -0.83241,0.40533 z m -5.53879,-18.02814 c -1.97433,-9.09338 -3.7459,-16.72406 -4.20479,-19.297 0,0 -1.89962,8.38847 -4.3542,19.0679 6.04038,0.19384 2.19845,0.0176 8.55899,0.2291 z m -21.99509,17.56994 c -0.83241,-0.37007 -12.32621,-20.19574 -12.51831,-20.61869 -0.33081,-0.74016 -0.40553,-1.09262 -0.40553,-2.14998 0,-0.84591 0.0853,-1.48033 0.24545,-1.88565 0.064,-0.1586 11.48312,-20.14288 12.60369,-20.8478 0.78973,-0.49344 1.50476,-0.0882 2.0597,0.51107 0.17076,0.19385 0.43756,0.66966 0.58696,1.07498 0.43756,1.44508 0.29882,2.73155 -0.11738,4.08851 -2.01702,3.70078 -4.19412,7.19011 -6.29651,10.76753 -3.67118,6.27373 -3.67118,6.27373 1.26997,14.64457 2.72137,4.61717 5.04787,8.65281 5.18661,8.98764 0.39487,1.44507 0.24547,2.67867 -0.16007,4.03562 -0.24547,0.54631 -0.60831,1.03975 -0.94982,1.26885 -0.55494,0.51106 -0.9178,0.33483 -1.50476,0.1233 z m 39.7,0.14098 c -4.46091,0.58156 -8.58032,-4.26471 -10.42659,-8.74091 -3.0095,-6.8729 -3.41503,-17.39372 -1.06719,-25.35924 2.77472,-9.39297 7.72655,-11.26099 9.51946,-11.63106 5.955,-1.2336 9.56214,4.95202 9.69021,5.2516 0.22411,0.56393 0.30948,1.09262 0.30948,1.99138 0,0.82827 -0.0854,1.46269 -0.26679,1.95613 -0.14941,0.40533 -0.46958,0.93401 -0.71503,1.18073 -0.2668,0.28196 -0.68301,0.44057 -1.05653,0.45819 -1.985,0 -5.955,-9.07574 -11.69656,-0.21147 -3.04153,4.61718 -3.69253,15.06751 -1.38737,21.39411 3.5111,9.63967 9.06057,6.15036 9.55149,5.83314 0.44822,-0.29958 1.28063,-1.11023 1.85692,-1.81514 0.90713,-1.09262 1.12058,-1.25122 1.66485,-1.25122 0.38419,0 0.8004,0.17622 1.0672,0.4582 0.24545,0.24671 0.56562,0.7754 0.71503,1.18072 0.17075,0.45819 0.26679,1.14548 0.26679,1.81515 0,0.59918 -0.0854,1.35696 -0.19209,1.69179 -0.10669,0.33483 -0.39487,0.93401 -0.65099,1.32172 -0.55495,0.86351 -2.94549,4.19422 -7.18229,4.47618 z m 13.27603,-0.1233 c -0.44823,0 -0.86444,-0.17623 -1.17392,-0.47581 -0.26681,-0.24673 -0.59765,-0.72255 -0.73638,-1.03975 -0.13873,-0.31722 -0.28814,-1.075 -0.32016,-1.67418 -0.0321,-0.63442 0.0107,-1.3922 0.11739,-1.83276 0.10669,-0.42295 2.2518,-4.24711 5.1119,-9.09338 2.71071,-4.59955 4.9305,-8.51182 4.9305,-8.70567 0,-0.19386 -2.23046,-4.12375 -4.9625,-8.74093 -2.73204,-4.61717 -5.02654,-8.67042 -5.10125,-8.98763 -0.0747,-0.31721 -0.13874,-1.07499 -0.13874,-1.67417 0,-0.74016 0.0961,-1.32171 0.30949,-1.83278 0.17077,-0.42294 0.51228,-0.95162 0.7684,-1.19835 0.29882,-0.28196 0.69369,-0.44056 1.10989,-0.44056 0.41621,0.0176 0.82175,0.19385 1.12057,0.49344 0.25612,0.26434 3.06287,4.86389 6.23247,10.20361 3.16959,5.33971 5.85895,10.045 5.99769,10.43271 0.12807,0.38769 0.23478,1.16311 0.23478,1.72704 0,0.56392 -0.10669,1.33933 -0.23478,1.72703 -0.12806,0.3877 -2.77474,5.00488 -5.8803,10.25648 -3.10556,5.2516 -5.8803,9.83354 -6.16844,10.18599 -0.41621,0.51106 -0.67234,0.63442 -1.22728,0.63442 z"
       id="path17" />
    <g
       id="rect1"
       style="opacity:1"
       transform="matrix(0.13049776,0,0,0.12998764,104.41399,109.19523)">
      <path
         style="baseline-shift:baseline;display:inline;overflow:visible;vector-effect:none;fill:#e3dedb;fill-opacity:0;stroke-linecap:round;stroke-linejoin:round;enable-background:accumulate;stop-color:#000000;stop-opacity:1"
         d="m 199.46451,201.08747 c 49.19459,-41.79091 58.31377,-47.62338 132.94271,-56.91173 135.86684,3.10869 250.52416,-0.52851 378.69252,2.13982 64.6206,3.76297 106.93067,35.27039 132.37582,78.66672 23.68567,36.07948 28.13273,67.25511 33.36306,102.5255 0.99596,22.14386 0.86371,22.35702 2.56312,46.34823 -0.84121,18.06308 -10e-6,46.78292 -10e-6,46.78292 v 45.93607 45.93606 45.93605 l -0.28216,58.4928 -0.71335,60.52216 -2.32207,47.51492 c -11.36313,52.75952 -27.45763,78.22567 -64.8144,114.11806 -44.28789,37.02317 -88.48127,37.73022 -143.86662,40.6184 -106.02448,0.37945 -212.0472,0.6772 -318.06514,-0.57209 -72.71042,-0.25255 -124.22636,-18.28492 -166.74985,-77.11498 -21.90107,-32.52158 -30.82859,-69.4307 -35.18296,-108.17667 -0.97047,-11.03601 -0.85813,-319.14683 -0.85813,-319.14683 6.06078,-104.68734 8.55526,-119.02798 52.91746,-173.61541 z"
         id="path8" />
      <path
         style="baseline-shift:baseline;display:inline;overflow:visible;vector-effect:none;fill:#3C3C3C;stroke-linecap:round;stroke-linejoin:round;enable-background:accumulate;stop-color:#000000;stop-opacity:1"
         d="m 332.78906,127.46094 a 16.720071,16.720071 0 0 0 -2.44726,0.125 c -75.31451,9.37367 -92.3146,18.80576 -141.70118,60.75976 a 16.720071,16.720071 0 0 0 -2.15039,2.19727 c -22.53628,27.73076 -36.13754,47.56613 -43.88281,73.83789 -7.74526,26.27176 -9.7145,56.92365 -12.75,109.35547 a 16.720071,16.720071 0 0 0 -0.0293,0.96094 c 0,0 -0.0268,77.03672 0.0664,155.46093 0.0466,39.21211 0.12198,78.76921 0.24805,109.23828 0.063,15.23454 0.13818,28.19372 0.22851,37.73047 0.0903,9.53675 -0.039,13.41287 0.38086,18.1875 a 16.720071,16.720071 0 0 0 0.0391,0.40235 c 4.506,40.09521 13.9308,80.01175 37.92968,115.64843 a 16.720071,16.720071 0 0 0 0.31836,0.45508 c 45.32871,62.71101 104.79316,83.77701 180.24024,84.03906 106.13425,1.24932 212.1967,0.95159 318.18359,0.57227 a 16.720071,16.720071 0 0 0 0.81055,-0.0234 c 55.06518,-2.87148 105.31231,-4.02019 153.71875,-44.48633 a 16.720071,16.720071 0 0 0 0.86133,-0.77148 c 38.47576,-36.96752 57.7601,-67.80082 69.57421,-122.6543 a 16.720071,16.720071 0 0 0 0.35547,-2.70312 l 2.32227,-47.51563 a 16.720071,16.720071 0 0 0 0.0176,-0.61914 l 0.71289,-60.52148 a 16.720071,16.720071 0 0 0 0.002,-0.11524 l 0.28125,-58.49414 a 16.720071,16.720071 0 0 0 0.002,-0.0801 v -45.93555 -45.9375 -45.93555 a 16.720071,16.720071 0 0 0 -0.008,-0.48828 c 0,0 -0.79052,-28.79448 -0.0117,-45.51758 a 16.720071,16.720071 0 0 0 -0.0234,-1.95898 c -1.69459,-23.92327 -1.53794,-23.70294 -2.5371,-45.91797 a 16.720071,16.720071 0 0 0 -0.16407,-1.70117 C 888.15692,289.85372 883.03654,254.80714 857.48242,215.85742 829.66848,168.87014 781.34419,133.65882 712.07227,129.625 a 16.720071,16.720071 0 0 0 -0.625,-0.0234 c -128.6919,-2.67923 -243.30454,0.95633 -378.65821,-2.14062 z m 0.55274,33.45312 c 135.65552,3.06311 249.96201,-0.52027 377.03515,2.11328 59.48402,3.53646 95.56804,31.0022 118.67578,70.41211 A 16.720071,16.720071 0 0 0 829.5,234.1582 c 21.61979,32.9326 25.50106,60.0957 30.67773,95.02539 0.91396,20.43327 0.91187,22.61888 2.4961,45.05469 -0.81283,19.1359 -0.0102,45.85196 0.01,46.49805 v 45.83789 45.9375 45.89453 l -0.28125,58.39453 -0.70898,60.1543 -2.23438,45.67383 c -10.80567,49.5153 -23.75208,69.71649 -59.3125,103.95312 -39.93041,33.17142 -77.94524,33.53735 -133.25781,36.41406 -105.86392,0.37864 -211.6497,0.67333 -317.35351,-0.57226 a 16.720071,16.720071 0 0 0 -0.13868,0 c -69.85749,-0.24264 -113.39544,-15.20434 -153.06054,-69.92969 -19.66031,-29.28576 -28.07458,-63.02207 -32.2793,-100.22266 0.16853,1.85443 -0.16137,-6.10601 -0.25,-15.46289 -0.0893,-9.42542 -0.16366,-22.34799 -0.22656,-37.55078 -0.12581,-30.40558 -0.2034,-69.94552 -0.25,-109.14062 -0.0929,-78.12617 -0.0646,-154.36855 -0.0645,-154.88477 3.01143,-51.94701 5.32541,-80.74389 11.41407,-101.39648 6.01287,-20.39553 15.75297,-35.00804 36.875,-61.07813 47.34948,-40.2408 49.80401,-42.86012 121.78711,-51.84375 z"
         id="path9" />
    </g>
  </g>
</svg>